<svg xmlns="http://www.w3.org/2000/svg" xmlns:xlink="http://www.w3.org/1999/xlink" version="1.1" x="0px" y="0px" viewBox="0 0 96 120" enable-background="new 0 0 96 96" xml:space="preserve"><path d="M48,9C26.495,9,9,26.495,9,48s17.495,39,39,39s39-17.495,39-39S69.505,9,48,9z M73.41,36.899l-33.34,28.3  c-0.727,0.613-1.624,0.949-2.535,0.954h-0.058l-0.38-0.02c-1.089-0.112-2.06-0.634-2.734-1.472L22.045,49.172  c-0.663-0.833-0.963-1.876-0.844-2.937c0.122-1.067,0.651-2.02,1.492-2.687c0.663-0.532,1.538-0.831,2.45-0.831  c1.252,0,2.439,0.558,3.175,1.491l9.718,12.221l30.195-25.629c0.685-0.576,1.586-0.888,2.548-0.888c1.239,0,2.365,0.489,3.089,1.342  C75.296,32.952,75.086,35.479,73.41,36.899z"/></svg>