<svg xmlns="http://www.w3.org/2000/svg" xmlns:xlink="http://www.w3.org/1999/xlink" version="1.1" x="0px" y="0px" viewBox="0 0 100 125" style="enable-background:new 0 0 100 100;" xml:space="preserve"><g><path d="M88.3,24.3c-1.2-2.1-3.1-3.6-5.4-4.3s-4.8-0.4-6.9,0.8L73.7,22c-0.4,0.2-0.8,0.2-1.2-0.1c-2.7-2.2-5.7-3.9-8.9-5.3   c-0.4-0.2-0.6-0.5-0.6-1V13c0-5-4.1-9-9-9H46c-5,0-9,4.1-9,9v2.7c0,0.4-0.2,0.8-0.6,0.9c-2.8,1.1-5.4,2.6-7.8,4.4   c-0.3,0.2-0.8,0.2-1.1,0l-2.3-1.4c-4.3-2.6-9.8-1.2-12.4,3l-4.1,6.8C7.4,31.5,7,34,7.6,36.3c0.6,2.3,2,4.3,4.1,5.6l2.3,1.4   c0.4,0.2,0.5,0.6,0.5,1C14.2,46.2,14,48.1,14,50c0,1.4,0.1,2.8,0.2,4.2c0,0.4-0.2,0.8-0.5,1l-2.4,1.3c-2.1,1.2-3.6,3.1-4.3,5.4   c-0.7,2.3-0.4,4.8,0.8,6.9l3.8,6.9c1.2,2.1,3.1,3.6,5.4,4.3c2.3,0.7,4.8,0.4,6.9-0.8l2.4-1.3c0.4-0.2,0.8-0.2,1.2,0.1   c2.7,2.2,5.7,3.9,8.9,5.3c0.4,0.2,0.6,0.5,0.6,1V87c0,5,4.1,9,9,9H54c5,0,9-4.1,9-9v-2.7c0-0.4,0.2-0.8,0.6-0.9   c2.8-1.1,5.4-2.6,7.8-4.4c0.3-0.2,0.8-0.2,1.1,0l2.3,1.4c4.3,2.6,9.8,1.2,12.4-3l4.1-6.8c1.3-2.1,1.6-4.5,1.1-6.8   c-0.6-2.3-2-4.3-4.1-5.6L86,56.7c-0.4-0.2-0.5-0.6-0.5-1c0.3-1.9,0.5-3.8,0.5-5.7c0-1.4-0.1-2.8-0.2-4.2c0-0.4,0.2-0.8,0.5-1   l2.4-1.3c2.1-1.2,3.6-3.1,4.3-5.4c0.7-2.3,0.4-4.8-0.8-6.9L88.3,24.3z M84.8,36.5l-2.4,1.3c-3.2,1.8-5,5.3-4.6,8.9   c0.1,1.1,0.2,2.2,0.2,3.3c0,1.5-0.1,3-0.4,4.4c-0.6,3.6,1.1,7.2,4.2,9.1l2.3,1.4c0.3,0.2,0.4,0.5,0.5,0.6c0,0.2,0.1,0.5-0.1,0.8   l-4.1,6.8c-0.3,0.5-0.9,0.6-1.4,0.3l-2.3-1.4c-3.1-1.9-7.1-1.7-10,0.4c-1.9,1.4-3.9,2.5-6.1,3.4c-3.4,1.4-5.6,4.7-5.6,8.3V87   c0,0.6-0.5,1-1,1H46c-0.6,0-1-0.5-1-1v-2.7c0-3.7-2.2-7-5.6-8.4c-2.5-1-4.8-2.4-6.9-4.1c-1.7-1.3-3.7-2-5.7-2c-1.5,0-3,0.4-4.4,1.1   l-2.4,1.3c-0.3,0.2-0.6,0.1-0.8,0.1c-0.2-0.1-0.5-0.2-0.6-0.5l-3.8-6.9c-0.3-0.5-0.1-1.1,0.4-1.4l2.4-1.3c3.2-1.8,5-5.3,4.6-8.9   C22.1,52.2,22,51.1,22,50c0-1.5,0.1-3,0.4-4.4c0.6-3.6-1.1-7.2-4.2-9.1l-2.3-1.4c-0.3-0.2-0.4-0.5-0.5-0.6c0-0.2-0.1-0.5,0.1-0.8   l4.1-6.8c0.3-0.5,0.9-0.6,1.4-0.3l2.3,1.4c3.1,1.9,7.1,1.7,10-0.4c1.9-1.4,3.9-2.5,6.1-3.4c3.4-1.4,5.6-4.7,5.6-8.3V13   c0-0.6,0.5-1,1-1H54c0.6,0,1,0.5,1,1v2.7c0,3.7,2.2,7,5.6,8.4c2.5,1,4.8,2.4,6.9,4.1c2.9,2.3,6.8,2.7,10,0.9l2.4-1.3   c0.3-0.2,0.6-0.1,0.8-0.1c0.2,0.1,0.5,0.2,0.6,0.5l3.8,6.9C85.5,35.6,85.3,36.2,84.8,36.5z"/><path d="M50,28c-12.1,0-22,9.9-22,22s9.9,22,22,22s22-9.9,22-22S62.1,28,50,28z M50,64c-7.7,0-14-6.3-14-14s6.3-14,14-14   s14,6.3,14,14S57.7,64,50,64z"/></g></svg>