<svg xmlns="http://www.w3.org/2000/svg" xmlns:xlink="http://www.w3.org/1999/xlink" xml:space="preserve" version="1.1" style="shape-rendering:geometricPrecision;text-rendering:geometricPrecision;image-rendering:optimizeQuality;" viewBox="0 0 847 1058.75" x="0px" y="0px" fill-rule="evenodd" clip-rule="evenodd"><defs><style type="text/css">
   
    .fil0 {fill:black}
   
  </style></defs><g><path class="fil0" d="M423 19c224,0 404,181 404,404 0,224 -180,404 -404,404 -223,0 -404,-180 -404,-404 0,-223 181,-404 404,-404zm55 404l145 146c36,36 -18,90 -54,54l-146 -145 -145 145c-36,36 -90,-18 -55,-54l146 -146 -146 -145c-35,-36 19,-90 55,-55l145 146 146 -146c36,-35 90,19 54,55l-145 145z"/></g></svg>